{
  "accessors": [
    {
      "bufferView": 2,
      "componentType": 5126,
      "count": 3821,
      "max": [
        27.000001907348633,
        29.0,
        2.004790782928467
      ],
      "min": [
        -25.000001907348633,
        -27.000003814697266,
        -0.20000198483467102
      ],
      "type": "VEC3"
    },
    {
      "bufferView": 2,
      "byteOffset": 45852,
      "componentType": 5126,
      "count": 3821,
      "max": [
        1.0,
        1.0,
        1.0
      ],
      "min": [
        -1.0,
        -1.0,
        -1.0
      ],
      "type": "VEC3"
    },
    {
      "bufferView": 1,
      "componentType": 5126,
      "count": 3821,
      "max": [
        0.8511531949043274,
        0.9987499713897705
      ],
      "min": [
        0.0020964364521205425,
        0.27999991178512573
      ],
      "type": "VEC2"
    },
    {
      "bufferView": 1,
      "byteOffset": 30568,
      "componentType": 5126,
      "count": 3821,
      "max": [
        0.0,
        0.0
      ],
      "min": [
        0.0,
        0.0
      ],
      "type": "VEC2"
    },
    {
      "bufferView": 0,
      "componentType": 5125,
      "count": 5943,
      "type": "SCALAR"
    },
    {
      "bufferView": 2,
      "byteOffset": 91704,
      "componentType": 5126,
      "count": 5358,
      "max": [
        26.4966983795166,
        28.763648986816406,
        3.7593331336975098
      ],
      "min": [
        -24.4966983795166,
        -26.46906280517578,
        -0.13341005146503448
      ],
      "type": "VEC3"
    },
    {
      "bufferView": 2,
      "byteOffset": 156000,
      "componentType": 5126,
      "count": 5358,
      "max": [
        0.8015482425689697,
        0.801546037197113,
        0.6948819160461426
      ],
      "min": [
        -0.8015481233596802,
        -0.8014368414878845,
        -0.6941665410995483
      ],
      "type": "VEC3"
    },
    {
      "bufferView": 1,
      "byteOffset": 61136,
      "componentType": 5126,
      "count": 5358,
      "max": [
        1.0,
        0.9606379866600037
      ],
      "min": [
        -0.24542799592018127,
        0.015097999945282936
      ],
      "type": "VEC2"
    },
    {
      "bufferView": 1,
      "byteOffset": 104000,
      "componentType": 5126,
      "count": 5358,
      "max": [
        0.0,
        0.0
      ],
      "min": [
        0.0,
        0.0
      ],
      "type": "VEC2"
    },
    {
      "bufferView": 0,
      "byteOffset": 23772,
      "componentType": 5125,
      "count": 8208,
      "type": "SCALAR"
    },
    {
      "bufferView": 2,
      "byteOffset": 220296,
      "componentType": 5126,
      "count": 45715,
      "max": [
        28.207183837890625,
        30.152952194213867,
        6.8785881996154785
      ],
      "min": [
        -26.152952194213867,
        -28.207183837890625,
        0.30728933215141296
      ],
      "type": "VEC3"
    },
    {
      "bufferView": 2,
      "byteOffset": 768876,
      "componentType": 5126,
      "count": 45715,
      "max": [
        0.9241769313812256,
        0.9241762161254883,
        1.0
      ],
      "min": [
        -0.9241759777069092,
        -0.9241760969161987,
        -1.0
      ],
      "type": "VEC3"
    },
    {
      "bufferView": 1,
      "byteOffset": 146864,
      "componentType": 5126,
      "count": 45715,
      "max": [
        3.0912866592407227,
        0.9947180151939392
      ],
      "min": [
        -0.030427999794483185,
        0.11722100526094437
      ],
      "type": "VEC2"
    },
    {
      "bufferView": 1,
      "byteOffset": 512584,
      "componentType": 5126,
      "count": 45715,
      "max": [
        0.0,
        0.0
      ],
      "min": [
        0.0,
        0.0
      ],
      "type": "VEC2"
    },
    {
      "bufferView": 0,
      "byteOffset": 56604,
      "componentType": 5125,
      "count": 88578,
      "type": "SCALAR"
    },
    {
      "bufferView": 2,
      "byteOffset": 1317456,
      "componentType": 5126,
      "count": 5832,
      "max": [
        -7.0718231201171875,
        -3.472834825515747,
        1.4437150955200195
      ],
      "min": [
        -14.99422836303711,
        -10.99422836303711,
        -0.04871201887726784
      ],
      "type": "VEC3"
    },
    {
      "bufferView": 2,
      "byteOffset": 1387440,
      "componentType": 5126,
      "count": 5832,
      "max": [
        1.0,
        1.0,
        0.9999405741691589
      ],
      "min": [
        -1.0,
        -1.0,
        -0.9187984466552734
      ],
      "type": "VEC3"
    },
    {
      "bufferView": 1,
      "byteOffset": 878304,
      "componentType": 5126,
      "count": 5832,
      "max": [
        0.9806370735168457,
        0.9859330654144287
      ],
      "min": [
        0.014548301696777344,
        0.01566314697265625
      ],
      "type": "VEC2"
    },
    {
      "bufferView": 1,
      "byteOffset": 924960,
      "componentType": 5126,
      "count": 5832,
      "max": [
        0.9944807291030884,
        0.9950000047683716
      ],
      "min": [
        0.004999999888241291,
        0.004999999888241291
      ],
      "type": "VEC2"
    },
    {
      "bufferView": 0,
      "byteOffset": 410916,
      "componentType": 5125,
      "count": 17253,
      "type": "SCALAR"
    },
    {
      "bufferView": 2,
      "byteOffset": 1457424,
      "componentType": 5126,
      "count": 912,
      "max": [
        15.967530250549316,
        11.662572860717773,
        6.878584384918213
      ],
      "min": [
        -14.087892532348633,
        -9.36313533782959,
        -5.303902980813291e-06
      ],
      "type": "VEC3"
    },
    {
      "bufferView": 2,
      "byteOffset": 1468368,
      "componentType": 5126,
      "count": 912,
      "max": [
        1.0,
        1.0,
        1.0
      ],
      "min": [
        -1.0,
        -1.0,
        -1.0
      ],
      "type": "VEC3"
    },
    {
      "bufferView": 1,
      "byteOffset": 971616,
      "componentType": 5126,
      "count": 912,
      "max": [
        0.23046875,
        0.9993482828140259
      ],
      "min": [
        0.0009765623835846782,
        0.9653319716453552
      ],
      "type": "VEC2"
    },
    {
      "bufferView": 1,
      "byteOffset": 978912,
      "componentType": 5126,
      "count": 912,
      "max": [
        0.0,
        0.0
      ],
      "min": [
        0.0,
        0.0
      ],
      "type": "VEC2"
    },
    {
      "bufferView": 0,
      "byteOffset": 479928,
      "componentType": 5125,
      "count": 1386,
      "type": "SCALAR"
    }
  ],
  "asset": {
    "extras": {
      "author": "bhaveshchalke4513v2 (https://sketchfab.com/bhaveshchalke4513v2)",
      "license": "CC-BY-4.0 (http://creativecommons.org/licenses/by/4.0/)",
      "source": "https://sketchfab.com/3d-models/pallet-town-70929a9e275f4ff8a323e23441dcef1e",
      "title": "Pallet Town"
    },
    "generator": "Sketchfab-15.55.0",
    "version": "2.0"
  },
  "bufferViews": [
    {
      "buffer": 0,
      "byteLength": 485472,
      "name": "floatBufferViews",
      "target": 34963
    },
    {
      "buffer": 0,
      "byteLength": 986208,
      "byteOffset": 485472,
      "byteStride": 8,
      "name": "floatBufferViews",
      "target": 34962
    },
    {
      "buffer": 0,
      "byteLength": 1479312,
      "byteOffset": 1471680,
      "byteStride": 12,
      "name": "floatBufferViews",
      "target": 34962
    }
  ],
  "buffers": [
    {
      "byteLength": 2950992,
      "uri": "scene.bin"
    }
  ],
  "extensionsUsed": [
    "KHR_materials_specular"
  ],
  "images": [
    {
      "uri": "textures/3863_baseColor.webp"
    },
    {
      "uri": "textures/chip_wood_a_baseColor.png"
    },
    {
      "uri": "textures/fr-tree-a_baseColor.png"
    },
    {
      "uri": "textures/plant_baseColor.png"
    },
    {
      "uri": "textures/fire-red-buildings_baseColor.png"
    }
  ],
  "materials": [
    {
      "name": "3863",
      "pbrMetallicRoughness": {
        "baseColorTexture": {
          "index": 0
        },
        "metallicFactor": 0.0,
        "roughnessFactor": 0.7885257473118872
      }
    },
    {
      "doubleSided": true,
      "name": "chip_wood_a",
      "pbrMetallicRoughness": {
        "baseColorTexture": {
          "index": 1
        },
        "metallicFactor": 0.0,
        "roughnessFactor": 0.7885257473118872
      }
    },
    {
      "doubleSided": true,
      "name": "fr-tree-a",
      "pbrMetallicRoughness": {
        "baseColorTexture": {
          "index": 2
        },
        "metallicFactor": 0.0,
        "roughnessFactor": 0.8646564782796078
      }
    },
    {
      "alphaMode": "MASK",
      "doubleSided": true,
      "extensions": {
        "KHR_materials_specular": {
          "specularColorFactor": [
            1.0,
            1.0,
            1.0
          ],
          "specularFactor": 0.30933427606636515
        }
      },
      "name": "plant",
      "pbrMetallicRoughness": {
        "baseColorTexture": {
          "index": 3
        },
        "metallicFactor": 0.0
      }
    },
    {
      "doubleSided": true,
      "name": "fire-red-buildings",
      "pbrMetallicRoughness": {
        "baseColorTexture": {
          "index": 4
        },
        "metallicFactor": 0.0,
        "roughnessFactor": 0.8308205978495098
      }
    }
  ],
  "meshes": [
    {
      "name": "3863-001 (2)_3863_0",
      "primitives": [
        {
          "attributes": {
            "NORMAL": 1,
            "POSITION": 0,
            "TEXCOORD_0": 2,
            "TEXCOORD_1": 3
          },
          "indices": 4,
          "material": 0,
          "mode": 4
        }
      ]
    },
    {
      "name": "3863-001 (2)_chip_wood_a_0",
      "primitives": [
        {
          "attributes": {
            "NORMAL": 6,
            "POSITION": 5,
            "TEXCOORD_0": 7,
            "TEXCOORD_1": 8
          },
          "indices": 9,
          "material": 1,
          "mode": 4
        }
      ]
    },
    {
      "name": "3863-001 (2)_fr-tree-a_0",
      "primitives": [
        {
          "attributes": {
            "NORMAL": 11,
            "POSITION": 10,
            "TEXCOORD_0": 12,
            "TEXCOORD_1": 13
          },
          "indices": 14,
          "material": 2,
          "mode": 4
        }
      ]
    },
    {
      "name": "3863-001 (2)_plant_0",
      "primitives": [
        {
          "attributes": {
            "NORMAL": 16,
            "POSITION": 15,
            "TEXCOORD_0": 17,
            "TEXCOORD_1": 18
          },
          "indices": 19,
          "material": 3,
          "mode": 4
        }
      ]
    },
    {
      "name": "3863-001 (2)_fire-red-buildings_0",
      "primitives": [
        {
          "attributes": {
            "NORMAL": 21,
            "POSITION": 20,
            "TEXCOORD_0": 22,
            "TEXCOORD_1": 23
          },
          "indices": 24,
          "material": 4,
          "mode": 4
        }
      ]
    }
  ],
  "nodes": [
    {
      "children": [
        1
      ],
      "matrix": [
        1.0,
        0.0,
        0.0,
        0.0,
        0.0,
        2.220446049250313e-16,
        -1.0,
        0.0,
        0.0,
        1.0,
        2.220446049250313e-16,
        0.0,
        0.0,
        0.0,
        0.0,
        1.0
      ],
      "name": "Sketchfab_model"
    },
    {
      "children": [
        2
      ],
      "matrix": [
        0.009999999776482582,
        0.0,
        0.0,
        0.0,
        0.0,
        0.0,
        0.009999999776482582,
        0.0,
        0.0,
        -0.009999999776482582,
        0.0,
        0.0,
        0.0,
        0.0,
        0.0,
        1.0
      ],
      "name": "caf0502c2655432ba99041437bb048f5.fbx"
    },
    {
      "children": [
        3
      ],
      "name": "RootNode"
    },
    {
      "children": [
        4,
        5,
        6,
        7,
        8
      ],
      "matrix": [
        100.0,
        0.0,
        0.0,
        0.0,
        0.0,
        -1.629206793918314e-05,
        -99.99999999999868,
        0.0,
        0.0,
        99.99999999999868,
        -1.629206793918314e-05,
        0.0,
        0.0,
        0.0,
        0.0,
        1.0
      ],
      "name": "3863-001 (2)"
    },
    {
      "mesh": 0,
      "name": "3863-001 (2)_3863_0"
    },
    {
      "mesh": 1,
      "name": "3863-001 (2)_chip_wood_a_0"
    },
    {
      "mesh": 2,
      "name": "3863-001 (2)_fr-tree-a_0"
    },
    {
      "mesh": 3,
      "name": "3863-001 (2)_plant_0"
    },
    {
      "mesh": 4,
      "name": "3863-001 (2)_fire-red-buildings_0"
    }
  ],
  "samplers": [
    {
      "magFilter": 9728,
      "minFilter": 9986,
      "wrapS": 10497,
      "wrapT": 10497
    },
    {
      "magFilter": 9729,
      "minFilter": 9987,
      "wrapS": 10497,
      "wrapT": 10497
    }
  ],
  "scene": 0,
  "scenes": [
    {
      "name": "Sketchfab_Scene",
      "nodes": [
        0
      ]
    }
  ],
  "textures": [
    {
      "sampler": 0,
      "source": 0
    },
    {
      "sampler": 1,
      "source": 1
    },
    {
      "sampler": 0,
      "source": 2
    },
    {
      "sampler": 1,
      "source": 3
    },
    {
      "sampler": 0,
      "source": 4
    }
  ]
}
